<mxfile host="Electron" modified="2023-08-29T08:39:12.900Z" agent="Mozilla/5.0 (Macintosh; Intel Mac OS X 10_15_7) AppleWebKit/537.36 (KHTML, like Gecko) draw.io/21.6.8 Chrome/114.0.5735.289 Electron/25.5.0 Safari/537.36" etag="cGb5MHEQbwHkcGCB_xRq" version="21.6.8" type="device">
  <diagram name="Page-1" id="CB_8UwVoK0R4gD6ZVuGO">
    <mxGraphModel dx="1509" dy="955" grid="1" gridSize="10" guides="1" tooltips="1" connect="1" arrows="1" fold="1" page="1" pageScale="1" pageWidth="1100" pageHeight="850" math="0" shadow="0">
      <root>
        <mxCell id="0" />
        <mxCell id="1" parent="0" />
        <mxCell id="iFSqChOUb7Xngt0-Zzwx-1" value="Problem Definition" style="swimlane;whiteSpace=wrap;html=1;" vertex="1" parent="1">
          <mxGeometry x="300" y="115" width="200" height="555" as="geometry" />
        </mxCell>
        <mxCell id="iFSqChOUb7Xngt0-Zzwx-4" style="edgeStyle=orthogonalEdgeStyle;rounded=0;orthogonalLoop=1;jettySize=auto;html=1;exitX=0.5;exitY=1;exitDx=0;exitDy=0;entryX=0.5;entryY=0;entryDx=0;entryDy=0;" edge="1" parent="iFSqChOUb7Xngt0-Zzwx-1" source="iFSqChOUb7Xngt0-Zzwx-2" target="iFSqChOUb7Xngt0-Zzwx-3">
          <mxGeometry relative="1" as="geometry" />
        </mxCell>
        <mxCell id="iFSqChOUb7Xngt0-Zzwx-53" style="edgeStyle=orthogonalEdgeStyle;rounded=0;orthogonalLoop=1;jettySize=auto;html=1;exitX=0;exitY=0.5;exitDx=0;exitDy=0;entryX=0;entryY=0.5;entryDx=0;entryDy=0;" edge="1" parent="iFSqChOUb7Xngt0-Zzwx-1" source="iFSqChOUb7Xngt0-Zzwx-2" target="iFSqChOUb7Xngt0-Zzwx-11">
          <mxGeometry relative="1" as="geometry" />
        </mxCell>
        <mxCell id="iFSqChOUb7Xngt0-Zzwx-2" value="Original Idea" style="ellipse;whiteSpace=wrap;html=1;fillColor=#f8cecc;strokeColor=#b85450;" vertex="1" parent="iFSqChOUb7Xngt0-Zzwx-1">
          <mxGeometry x="37.5" y="84.95" width="115" height="40" as="geometry" />
        </mxCell>
        <mxCell id="iFSqChOUb7Xngt0-Zzwx-12" style="edgeStyle=orthogonalEdgeStyle;rounded=0;orthogonalLoop=1;jettySize=auto;html=1;entryX=0.5;entryY=0;entryDx=0;entryDy=0;strokeColor=none;dashed=1;" edge="1" parent="iFSqChOUb7Xngt0-Zzwx-1" source="iFSqChOUb7Xngt0-Zzwx-3" target="iFSqChOUb7Xngt0-Zzwx-11">
          <mxGeometry relative="1" as="geometry" />
        </mxCell>
        <mxCell id="iFSqChOUb7Xngt0-Zzwx-37" style="edgeStyle=orthogonalEdgeStyle;rounded=0;orthogonalLoop=1;jettySize=auto;html=1;exitX=0.5;exitY=1;exitDx=0;exitDy=0;entryX=0.5;entryY=0;entryDx=0;entryDy=0;dashed=1;" edge="1" parent="iFSqChOUb7Xngt0-Zzwx-1" source="iFSqChOUb7Xngt0-Zzwx-3" target="iFSqChOUb7Xngt0-Zzwx-11">
          <mxGeometry relative="1" as="geometry" />
        </mxCell>
        <mxCell id="iFSqChOUb7Xngt0-Zzwx-3" value="Problem Definition" style="rounded=0;whiteSpace=wrap;html=1;fillColor=#dae8fc;strokeColor=#6c8ebf;" vertex="1" parent="iFSqChOUb7Xngt0-Zzwx-1">
          <mxGeometry x="35" y="184.95" width="120" height="40" as="geometry" />
        </mxCell>
        <mxCell id="iFSqChOUb7Xngt0-Zzwx-38" style="edgeStyle=orthogonalEdgeStyle;rounded=0;orthogonalLoop=1;jettySize=auto;html=1;exitX=0.5;exitY=0;exitDx=0;exitDy=0;entryX=0.5;entryY=1;entryDx=0;entryDy=0;dashed=1;" edge="1" parent="iFSqChOUb7Xngt0-Zzwx-1" source="iFSqChOUb7Xngt0-Zzwx-11" target="iFSqChOUb7Xngt0-Zzwx-3">
          <mxGeometry relative="1" as="geometry" />
        </mxCell>
        <mxCell id="iFSqChOUb7Xngt0-Zzwx-11" value="Research" style="rounded=1;whiteSpace=wrap;html=1;fillColor=#d5e8d4;strokeColor=#82b366;" vertex="1" parent="iFSqChOUb7Xngt0-Zzwx-1">
          <mxGeometry x="35" y="364.95" width="120" height="40" as="geometry" />
        </mxCell>
        <mxCell id="iFSqChOUb7Xngt0-Zzwx-62" value="Deliveries" style="swimlane;horizontal=0;whiteSpace=wrap;html=1;" vertex="1" parent="iFSqChOUb7Xngt0-Zzwx-1">
          <mxGeometry y="450" width="1340" height="105" as="geometry" />
        </mxCell>
        <mxCell id="iFSqChOUb7Xngt0-Zzwx-64" value="&lt;ul&gt;&lt;li&gt;Modeling Document&lt;/li&gt;&lt;li&gt;Reference&lt;/li&gt;&lt;/ul&gt;" style="text;html=1;align=left;verticalAlign=middle;resizable=0;points=[];autosize=1;strokeColor=none;fillColor=none;" vertex="1" parent="iFSqChOUb7Xngt0-Zzwx-62">
          <mxGeometry x="30" y="15" width="170" height="70" as="geometry" />
        </mxCell>
        <mxCell id="iFSqChOUb7Xngt0-Zzwx-5" value="Exploratory Data Analysis" style="swimlane;whiteSpace=wrap;html=1;" vertex="1" parent="1">
          <mxGeometry x="500" y="115" width="190" height="555" as="geometry" />
        </mxCell>
        <mxCell id="iFSqChOUb7Xngt0-Zzwx-9" value="EDA" style="rounded=1;whiteSpace=wrap;html=1;fillColor=#d5e8d4;strokeColor=#82b366;" vertex="1" parent="iFSqChOUb7Xngt0-Zzwx-5">
          <mxGeometry x="35" y="84.95" width="120" height="40" as="geometry" />
        </mxCell>
        <mxCell id="iFSqChOUb7Xngt0-Zzwx-74" value="&lt;ul&gt;&lt;li&gt;Modeling Document&lt;/li&gt;&lt;li&gt;Notebooks&lt;/li&gt;&lt;li&gt;Code (.py)&lt;/li&gt;&lt;/ul&gt;" style="text;html=1;align=left;verticalAlign=middle;resizable=0;points=[];autosize=1;strokeColor=none;fillColor=none;" vertex="1" parent="iFSqChOUb7Xngt0-Zzwx-5">
          <mxGeometry x="10" y="465" width="170" height="80" as="geometry" />
        </mxCell>
        <mxCell id="iFSqChOUb7Xngt0-Zzwx-10" style="edgeStyle=orthogonalEdgeStyle;rounded=0;orthogonalLoop=1;jettySize=auto;html=1;exitX=1;exitY=0.5;exitDx=0;exitDy=0;entryX=0;entryY=0.5;entryDx=0;entryDy=0;dashed=1;" edge="1" parent="1" source="iFSqChOUb7Xngt0-Zzwx-2" target="iFSqChOUb7Xngt0-Zzwx-9">
          <mxGeometry relative="1" as="geometry" />
        </mxCell>
        <mxCell id="iFSqChOUb7Xngt0-Zzwx-16" value="Preprocessing" style="swimlane;whiteSpace=wrap;html=1;" vertex="1" parent="1">
          <mxGeometry x="690" y="115" width="190" height="555" as="geometry" />
        </mxCell>
        <mxCell id="iFSqChOUb7Xngt0-Zzwx-17" value="ETL" style="rounded=0;whiteSpace=wrap;html=1;fillColor=#dae8fc;strokeColor=#6c8ebf;" vertex="1" parent="iFSqChOUb7Xngt0-Zzwx-16">
          <mxGeometry x="35" y="184.95" width="120" height="40" as="geometry" />
        </mxCell>
        <mxCell id="iFSqChOUb7Xngt0-Zzwx-73" value="&lt;ul&gt;&lt;li&gt;Modeling Document&lt;/li&gt;&lt;li&gt;Notebooks&lt;/li&gt;&lt;li&gt;Code (.py)&lt;/li&gt;&lt;/ul&gt;" style="text;html=1;align=left;verticalAlign=middle;resizable=0;points=[];autosize=1;strokeColor=none;fillColor=none;" vertex="1" parent="iFSqChOUb7Xngt0-Zzwx-16">
          <mxGeometry x="10" y="465" width="170" height="80" as="geometry" />
        </mxCell>
        <mxCell id="iFSqChOUb7Xngt0-Zzwx-19" value="Feature Engineering" style="swimlane;whiteSpace=wrap;html=1;" vertex="1" parent="1">
          <mxGeometry x="880" y="115" width="190" height="555" as="geometry" />
        </mxCell>
        <mxCell id="iFSqChOUb7Xngt0-Zzwx-20" value="FE" style="rounded=0;whiteSpace=wrap;html=1;fillColor=#dae8fc;strokeColor=#6c8ebf;" vertex="1" parent="iFSqChOUb7Xngt0-Zzwx-19">
          <mxGeometry x="35" y="184.95" width="120" height="40" as="geometry" />
        </mxCell>
        <mxCell id="iFSqChOUb7Xngt0-Zzwx-72" value="&lt;ul&gt;&lt;li&gt;Modeling Document&lt;/li&gt;&lt;li&gt;Notebooks&lt;/li&gt;&lt;li&gt;Code (.py)&lt;/li&gt;&lt;/ul&gt;" style="text;html=1;align=left;verticalAlign=middle;resizable=0;points=[];autosize=1;strokeColor=none;fillColor=none;" vertex="1" parent="iFSqChOUb7Xngt0-Zzwx-19">
          <mxGeometry x="10" y="465" width="170" height="80" as="geometry" />
        </mxCell>
        <mxCell id="iFSqChOUb7Xngt0-Zzwx-21" style="edgeStyle=orthogonalEdgeStyle;rounded=0;orthogonalLoop=1;jettySize=auto;html=1;exitX=1;exitY=0.5;exitDx=0;exitDy=0;entryX=0.5;entryY=0;entryDx=0;entryDy=0;dashed=1;" edge="1" parent="1" source="iFSqChOUb7Xngt0-Zzwx-9" target="iFSqChOUb7Xngt0-Zzwx-20">
          <mxGeometry relative="1" as="geometry" />
        </mxCell>
        <mxCell id="iFSqChOUb7Xngt0-Zzwx-23" value="ML Modeling" style="swimlane;whiteSpace=wrap;html=1;" vertex="1" parent="1">
          <mxGeometry x="1260" y="115" width="190" height="555" as="geometry" />
        </mxCell>
        <mxCell id="iFSqChOUb7Xngt0-Zzwx-60" style="edgeStyle=orthogonalEdgeStyle;rounded=0;orthogonalLoop=1;jettySize=auto;html=1;exitX=0.5;exitY=0;exitDx=0;exitDy=0;dashed=1;" edge="1" parent="iFSqChOUb7Xngt0-Zzwx-23" source="iFSqChOUb7Xngt0-Zzwx-24" target="iFSqChOUb7Xngt0-Zzwx-59">
          <mxGeometry relative="1" as="geometry" />
        </mxCell>
        <mxCell id="iFSqChOUb7Xngt0-Zzwx-24" value="Modeling" style="rounded=0;whiteSpace=wrap;html=1;fillColor=#dae8fc;strokeColor=#6c8ebf;" vertex="1" parent="iFSqChOUb7Xngt0-Zzwx-23">
          <mxGeometry x="35" y="291.95" width="120" height="40" as="geometry" />
        </mxCell>
        <mxCell id="iFSqChOUb7Xngt0-Zzwx-61" style="edgeStyle=orthogonalEdgeStyle;rounded=0;orthogonalLoop=1;jettySize=auto;html=1;exitX=0.5;exitY=1;exitDx=0;exitDy=0;entryX=0.5;entryY=0;entryDx=0;entryDy=0;dashed=1;" edge="1" parent="iFSqChOUb7Xngt0-Zzwx-23" source="iFSqChOUb7Xngt0-Zzwx-59" target="iFSqChOUb7Xngt0-Zzwx-24">
          <mxGeometry relative="1" as="geometry" />
        </mxCell>
        <mxCell id="iFSqChOUb7Xngt0-Zzwx-59" value="Explainability" style="rounded=1;whiteSpace=wrap;html=1;fillColor=#d5e8d4;strokeColor=#82b366;" vertex="1" parent="iFSqChOUb7Xngt0-Zzwx-23">
          <mxGeometry x="35" y="84.95" width="120" height="40" as="geometry" />
        </mxCell>
        <mxCell id="iFSqChOUb7Xngt0-Zzwx-71" value="&lt;ul&gt;&lt;li&gt;Modeling Document&lt;/li&gt;&lt;li&gt;Notebooks&lt;/li&gt;&lt;li&gt;Code (.py)&lt;/li&gt;&lt;/ul&gt;" style="text;html=1;align=left;verticalAlign=middle;resizable=0;points=[];autosize=1;strokeColor=none;fillColor=none;" vertex="1" parent="iFSqChOUb7Xngt0-Zzwx-23">
          <mxGeometry x="3" y="465" width="170" height="80" as="geometry" />
        </mxCell>
        <mxCell id="iFSqChOUb7Xngt0-Zzwx-28" value="Product" style="swimlane;whiteSpace=wrap;html=1;" vertex="1" parent="1">
          <mxGeometry x="1450" y="115" width="190" height="555" as="geometry" />
        </mxCell>
        <mxCell id="iFSqChOUb7Xngt0-Zzwx-50" style="edgeStyle=orthogonalEdgeStyle;rounded=0;orthogonalLoop=1;jettySize=auto;html=1;exitX=0.5;exitY=0;exitDx=0;exitDy=0;entryX=0.5;entryY=1;entryDx=0;entryDy=0;" edge="1" parent="iFSqChOUb7Xngt0-Zzwx-28" source="iFSqChOUb7Xngt0-Zzwx-29" target="iFSqChOUb7Xngt0-Zzwx-34">
          <mxGeometry relative="1" as="geometry" />
        </mxCell>
        <mxCell id="iFSqChOUb7Xngt0-Zzwx-29" value="ML Engineering" style="rounded=0;whiteSpace=wrap;html=1;fillColor=#dae8fc;strokeColor=#6c8ebf;" vertex="1" parent="iFSqChOUb7Xngt0-Zzwx-28">
          <mxGeometry x="35" y="291.95" width="120" height="40" as="geometry" />
        </mxCell>
        <mxCell id="iFSqChOUb7Xngt0-Zzwx-34" value="Product" style="rounded=1;whiteSpace=wrap;html=1;fillColor=#f8cecc;strokeColor=#b85450;" vertex="1" parent="iFSqChOUb7Xngt0-Zzwx-28">
          <mxGeometry x="35" y="84.95" width="120" height="40" as="geometry" />
        </mxCell>
        <mxCell id="iFSqChOUb7Xngt0-Zzwx-70" value="&lt;ul&gt;&lt;li&gt;Modeling Document&lt;/li&gt;&lt;li&gt;Code (.py)&lt;/li&gt;&lt;/ul&gt;" style="text;html=1;align=left;verticalAlign=middle;resizable=0;points=[];autosize=1;strokeColor=none;fillColor=none;" vertex="1" parent="iFSqChOUb7Xngt0-Zzwx-28">
          <mxGeometry y="465" width="170" height="70" as="geometry" />
        </mxCell>
        <mxCell id="iFSqChOUb7Xngt0-Zzwx-31" style="edgeStyle=orthogonalEdgeStyle;rounded=0;orthogonalLoop=1;jettySize=auto;html=1;exitX=1;exitY=0.5;exitDx=0;exitDy=0;entryX=0;entryY=0.5;entryDx=0;entryDy=0;" edge="1" parent="1" source="iFSqChOUb7Xngt0-Zzwx-24" target="iFSqChOUb7Xngt0-Zzwx-29">
          <mxGeometry relative="1" as="geometry" />
        </mxCell>
        <mxCell id="iFSqChOUb7Xngt0-Zzwx-39" style="edgeStyle=orthogonalEdgeStyle;rounded=0;orthogonalLoop=1;jettySize=auto;html=1;exitX=0.5;exitY=1;exitDx=0;exitDy=0;entryX=1;entryY=0.25;entryDx=0;entryDy=0;dashed=1;" edge="1" parent="1" source="iFSqChOUb7Xngt0-Zzwx-9" target="iFSqChOUb7Xngt0-Zzwx-3">
          <mxGeometry relative="1" as="geometry" />
        </mxCell>
        <mxCell id="iFSqChOUb7Xngt0-Zzwx-40" style="edgeStyle=orthogonalEdgeStyle;rounded=0;orthogonalLoop=1;jettySize=auto;html=1;exitX=1;exitY=0.25;exitDx=0;exitDy=0;entryX=0.5;entryY=1;entryDx=0;entryDy=0;dashed=1;" edge="1" parent="1" source="iFSqChOUb7Xngt0-Zzwx-3" target="iFSqChOUb7Xngt0-Zzwx-9">
          <mxGeometry relative="1" as="geometry" />
        </mxCell>
        <mxCell id="iFSqChOUb7Xngt0-Zzwx-43" style="edgeStyle=orthogonalEdgeStyle;rounded=0;orthogonalLoop=1;jettySize=auto;html=1;entryX=0.5;entryY=1;entryDx=0;entryDy=0;dashed=1;" edge="1" parent="1" source="iFSqChOUb7Xngt0-Zzwx-11" target="iFSqChOUb7Xngt0-Zzwx-20">
          <mxGeometry relative="1" as="geometry" />
        </mxCell>
        <mxCell id="iFSqChOUb7Xngt0-Zzwx-44" style="edgeStyle=orthogonalEdgeStyle;rounded=0;orthogonalLoop=1;jettySize=auto;html=1;exitX=0.5;exitY=0;exitDx=0;exitDy=0;entryX=0.5;entryY=0;entryDx=0;entryDy=0;" edge="1" parent="1" source="iFSqChOUb7Xngt0-Zzwx-2" target="iFSqChOUb7Xngt0-Zzwx-34">
          <mxGeometry relative="1" as="geometry" />
        </mxCell>
        <mxCell id="iFSqChOUb7Xngt0-Zzwx-46" style="edgeStyle=orthogonalEdgeStyle;rounded=0;orthogonalLoop=1;jettySize=auto;html=1;exitX=1;exitY=0.5;exitDx=0;exitDy=0;dashed=1;" edge="1" parent="1" source="iFSqChOUb7Xngt0-Zzwx-9" target="iFSqChOUb7Xngt0-Zzwx-17">
          <mxGeometry relative="1" as="geometry" />
        </mxCell>
        <mxCell id="iFSqChOUb7Xngt0-Zzwx-49" style="edgeStyle=orthogonalEdgeStyle;rounded=0;orthogonalLoop=1;jettySize=auto;html=1;exitX=0.5;exitY=1;exitDx=0;exitDy=0;entryX=0;entryY=0.5;entryDx=0;entryDy=0;" edge="1" parent="1" source="iFSqChOUb7Xngt0-Zzwx-17" target="iFSqChOUb7Xngt0-Zzwx-55">
          <mxGeometry relative="1" as="geometry" />
        </mxCell>
        <mxCell id="iFSqChOUb7Xngt0-Zzwx-51" style="edgeStyle=orthogonalEdgeStyle;rounded=0;orthogonalLoop=1;jettySize=auto;html=1;exitX=1;exitY=0.5;exitDx=0;exitDy=0;" edge="1" parent="1" source="iFSqChOUb7Xngt0-Zzwx-3" target="iFSqChOUb7Xngt0-Zzwx-17">
          <mxGeometry relative="1" as="geometry" />
        </mxCell>
        <mxCell id="iFSqChOUb7Xngt0-Zzwx-52" style="edgeStyle=orthogonalEdgeStyle;rounded=0;orthogonalLoop=1;jettySize=auto;html=1;exitX=0.75;exitY=0;exitDx=0;exitDy=0;entryX=0.25;entryY=0;entryDx=0;entryDy=0;" edge="1" parent="1" source="iFSqChOUb7Xngt0-Zzwx-3" target="iFSqChOUb7Xngt0-Zzwx-20">
          <mxGeometry relative="1" as="geometry" />
        </mxCell>
        <mxCell id="iFSqChOUb7Xngt0-Zzwx-54" value="Experimental Design" style="swimlane;whiteSpace=wrap;html=1;" vertex="1" parent="1">
          <mxGeometry x="1070" y="115" width="190" height="555" as="geometry" />
        </mxCell>
        <mxCell id="iFSqChOUb7Xngt0-Zzwx-55" value="Cross-validation" style="rounded=0;whiteSpace=wrap;html=1;fillColor=#dae8fc;strokeColor=#6c8ebf;" vertex="1" parent="iFSqChOUb7Xngt0-Zzwx-54">
          <mxGeometry x="35" y="291.95" width="120" height="40" as="geometry" />
        </mxCell>
        <mxCell id="iFSqChOUb7Xngt0-Zzwx-68" value="&lt;ul&gt;&lt;li&gt;Modeling Document&lt;/li&gt;&lt;li&gt;Notebooks&lt;/li&gt;&lt;li&gt;Code (.py)&lt;/li&gt;&lt;/ul&gt;" style="text;html=1;align=left;verticalAlign=middle;resizable=0;points=[];autosize=1;strokeColor=none;fillColor=none;" vertex="1" parent="iFSqChOUb7Xngt0-Zzwx-54">
          <mxGeometry x="7" y="465" width="170" height="80" as="geometry" />
        </mxCell>
        <mxCell id="iFSqChOUb7Xngt0-Zzwx-57" style="edgeStyle=orthogonalEdgeStyle;rounded=0;orthogonalLoop=1;jettySize=auto;html=1;exitX=1;exitY=0.5;exitDx=0;exitDy=0;" edge="1" parent="1" source="iFSqChOUb7Xngt0-Zzwx-20" target="iFSqChOUb7Xngt0-Zzwx-55">
          <mxGeometry relative="1" as="geometry" />
        </mxCell>
        <mxCell id="iFSqChOUb7Xngt0-Zzwx-58" style="edgeStyle=orthogonalEdgeStyle;rounded=0;orthogonalLoop=1;jettySize=auto;html=1;exitX=1;exitY=0.5;exitDx=0;exitDy=0;entryX=0;entryY=0.5;entryDx=0;entryDy=0;" edge="1" parent="1" source="iFSqChOUb7Xngt0-Zzwx-55" target="iFSqChOUb7Xngt0-Zzwx-24">
          <mxGeometry relative="1" as="geometry" />
        </mxCell>
      </root>
    </mxGraphModel>
  </diagram>
</mxfile>
